<svg width="18" height="18" viewBox="0 0 18 18" fill="none" xmlns="http://www.w3.org/2000/svg">
<mask id="path-1-inside-1_1_152" fill="white">
<path d="M17.7473 16.4825L14.4102 13.17C15.7056 11.5537 16.3329 9.50215 16.1631 7.43721C15.9934 5.37227 15.0396 3.45088 13.4978 2.06813C11.9559 0.685379 9.94333 -0.0536394 7.87376 0.00303437C5.80419 0.0597081 3.83498 0.907766 2.37103 2.37283C0.907077 3.83789 0.0596628 5.8086 0.00303206 7.87974C-0.0535986 9.95088 0.684859 11.965 2.06656 13.508C3.44826 15.051 5.36819 16.0056 7.43156 16.1754C9.49493 16.3453 11.5449 15.7175 13.16 14.4212L16.47 17.7337C16.5536 17.8181 16.6531 17.8851 16.7627 17.9308C16.8723 17.9765 16.9899 18 17.1086 18C17.2274 18 17.3449 17.9765 17.4546 17.9308C17.5642 17.8851 17.6636 17.8181 17.7473 17.7337C17.9094 17.5659 18 17.3416 18 17.1081C18 16.8747 17.9094 16.6504 17.7473 16.4825ZM8.11399 14.4212C6.8687 14.4212 5.65139 14.0516 4.61597 13.3593C3.58056 12.6669 2.77355 11.6828 2.297 10.5315C1.82045 9.38009 1.69577 8.11316 1.93871 6.89088C2.18165 5.6686 2.78131 4.54586 3.66186 3.66464C4.54241 2.78343 5.66429 2.18331 6.88565 1.94018C8.107 1.69706 9.37297 1.82184 10.5235 2.29875C11.674 2.77566 12.6573 3.58328 13.3491 4.61948C14.041 5.65568 14.4102 6.87392 14.4102 8.12015C14.4102 9.79129 13.7469 11.394 12.5661 12.5757C11.3853 13.7573 9.78386 14.4212 8.11399 14.4212Z"/>
</mask>
<path d="M17.7473 16.4825L14.4102 13.17C15.7056 11.5537 16.3329 9.50215 16.1631 7.43721C15.9934 5.37227 15.0396 3.45088 13.4978 2.06813C11.9559 0.685379 9.94333 -0.0536394 7.87376 0.00303437C5.80419 0.0597081 3.83498 0.907766 2.37103 2.37283C0.907077 3.83789 0.0596628 5.8086 0.00303206 7.87974C-0.0535986 9.95088 0.684859 11.965 2.06656 13.508C3.44826 15.051 5.36819 16.0056 7.43156 16.1754C9.49493 16.3453 11.5449 15.7175 13.16 14.4212L16.47 17.7337C16.5536 17.8181 16.6531 17.8851 16.7627 17.9308C16.8723 17.9765 16.9899 18 17.1086 18C17.2274 18 17.3449 17.9765 17.4546 17.9308C17.5642 17.8851 17.6636 17.8181 17.7473 17.7337C17.9094 17.5659 18 17.3416 18 17.1081C18 16.8747 17.9094 16.6504 17.7473 16.4825ZM8.11399 14.4212C6.8687 14.4212 5.65139 14.0516 4.61597 13.3593C3.58056 12.6669 2.77355 11.6828 2.297 10.5315C1.82045 9.38009 1.69577 8.11316 1.93871 6.89088C2.18165 5.6686 2.78131 4.54586 3.66186 3.66464C4.54241 2.78343 5.66429 2.18331 6.88565 1.94018C8.107 1.69706 9.37297 1.82184 10.5235 2.29875C11.674 2.77566 12.6573 3.58328 13.3491 4.61948C14.041 5.65568 14.4102 6.87392 14.4102 8.12015C14.4102 9.79129 13.7469 11.394 12.5661 12.5757C11.3853 13.7573 9.78386 14.4212 8.11399 14.4212Z" fill="#01213E"/>
<path d="M17.7473 16.4825L29.9749 4.67217L29.8507 4.54355L29.7238 4.41757L17.7473 16.4825ZM14.4102 13.17L1.14461 2.53876L-8.41434 14.4664L2.43374 25.235L14.4102 13.17ZM13.16 14.4212L25.1854 2.40494L14.4089 -8.37976L2.51893 1.16344L13.16 14.4212ZM16.47 17.7337L28.5446 5.76689L28.52 5.74214L28.4954 5.71749L16.47 17.7337ZM17.7473 17.7337L29.8218 29.7006L29.8989 29.6228L29.9749 29.5441L17.7473 17.7337ZM8.11399 14.4212V-2.57881V14.4212ZM29.7238 4.41757L26.3867 1.10502L2.43374 25.235L5.77076 28.5475L29.7238 4.41757ZM27.6759 23.8012C31.6894 18.7931 33.6315 12.4388 33.106 6.04463L-0.779736 8.82979C-0.96584 6.56554 -0.278299 4.31426 1.14461 2.53876L27.6759 23.8012ZM33.106 6.04463C32.5804 -0.349584 29.6267 -6.30211 24.848 -10.5878L2.14752 14.724C0.452476 13.2039 -0.593624 11.0941 -0.779736 8.82979L33.106 6.04463ZM24.848 -10.5878C20.0689 -14.8738 13.8281 -17.1664 7.4084 -16.9906L8.33912 16.9967C6.05859 17.0591 3.84297 16.2446 2.14752 14.724L24.848 -10.5878ZM7.4084 -16.9906C0.988772 -16.8148 -5.11706 -14.1842 -9.65435 -9.64342L14.3964 14.3891C12.787 15.9997 10.6196 16.9342 8.33912 16.9967L7.4084 -16.9906ZM-9.65435 -9.64342C-14.1913 -5.10306 -16.8153 1.00178 -16.9906 7.41509L16.9967 8.3444C16.9346 10.6154 16.0054 12.7788 14.3964 14.3891L-9.65435 -9.64342ZM-16.9906 7.41509C-17.166 13.8284 -14.8795 20.0673 -10.5979 24.8487L14.731 2.16733C16.2492 3.86275 17.0588 6.07339 16.9967 8.3444L-16.9906 7.41509ZM-10.5979 24.8487C-6.31596 29.6305 -0.363443 32.5912 6.03688 33.1181L8.82624 -0.767284C11.0998 -0.580128 13.2125 0.471518 14.731 2.16733L-10.5979 24.8487ZM6.03688 33.1181C12.4373 33.645 18.7944 31.6974 23.801 27.6789L2.51893 1.16344C4.2954 -0.262402 6.55258 -0.954446 8.82624 -0.767284L6.03688 33.1181ZM1.13461 26.4374L4.44464 29.75L28.4954 5.71749L25.1854 2.40494L1.13461 26.4374ZM4.39548 29.7006C6.05884 31.3789 8.03852 32.7118 10.2207 33.6216L23.3048 2.23995C25.2677 3.05838 27.0484 4.2573 28.5446 5.76689L4.39548 29.7006ZM10.2207 33.6216C12.4029 34.5314 14.744 35 17.1086 35V0.999999C19.2358 0.999999 21.3417 1.42151 23.3048 2.23995L10.2207 33.6216ZM17.1086 35C19.4733 35 21.8144 34.5314 23.9966 33.6216L10.9125 2.23995C12.8755 1.42151 14.9814 0.999999 17.1086 0.999999V35ZM23.9966 33.6216C26.1788 32.7118 28.1584 31.3789 29.8218 29.7006L5.67271 5.76689C7.16884 4.2573 8.94956 3.05838 10.9125 2.23995L23.9966 33.6216ZM29.9749 29.5441C33.1996 26.2055 35 21.7463 35 17.1081H1C1 12.9369 2.61916 8.92631 5.51961 5.92338L29.9749 29.5441ZM35 17.1081C35 12.47 33.1996 8.0108 29.9749 4.67217L5.51961 28.2929C2.61916 25.29 1 21.2794 1 17.1081H35ZM8.11399 -2.57881C10.2339 -2.57881 12.3051 -1.94965 14.0656 -0.772394L-4.83368 27.4909C-1.00229 30.0529 3.50355 31.4212 8.11399 31.4212V-2.57881ZM14.0656 -0.772394C15.826 0.404763 17.1961 2.07654 18.0047 4.03005L-13.4107 17.0329C-11.649 21.2891 -8.66491 24.9291 -4.83368 27.4909L14.0656 -0.772394ZM18.0047 4.03005C18.8132 5.98344 19.0245 8.13214 18.6125 10.205L-14.7351 3.57677C-15.633 8.09418 -15.1723 12.7767 -13.4107 17.0329L18.0047 4.03005ZM18.6125 10.205C18.2005 12.2779 17.1832 14.1838 15.6872 15.6809L-8.36352 -8.35161C-11.6206 -5.09207 -13.8372 -0.940723 -14.7351 3.57677L18.6125 10.205ZM15.6872 15.6809C14.1911 17.1781 12.2834 18.1992 10.2046 18.6131L3.56669 -14.7327C-0.954816 -13.8326 -5.10631 -11.6113 -8.36352 -8.35161L15.6872 15.6809ZM10.2046 18.6131C8.12574 19.0269 5.97107 18.8144 4.01362 18.003L17.0333 -13.4055C12.7749 -15.1707 8.08827 -15.6328 3.56669 -14.7327L10.2046 18.6131ZM4.01362 18.003C2.0563 17.1916 0.385438 15.8185 -0.789162 14.0592L27.4874 -4.82026C24.9291 -8.6519 21.2916 -11.6403 17.0333 -13.4055L4.01362 18.003ZM-0.789162 14.0592C-1.96366 12.3001 -2.58976 10.2333 -2.58976 8.12015H31.4102C31.4102 3.51452 30.0456 -0.988751 27.4874 -4.82026L-0.789162 14.0592ZM-2.58976 8.12015C-2.58976 5.28677 -1.46518 2.56684 0.540734 0.559408L24.5915 24.5919C28.959 20.2211 31.4102 14.2958 31.4102 8.12015H-2.58976ZM0.540734 0.559408C2.54708 -1.44846 5.27101 -2.57881 8.11399 -2.57881V31.4212C14.2967 31.4212 20.2236 28.9631 24.5915 24.5919L0.540734 0.559408Z" fill="#01213E" mask="url(#path-1-inside-1_1_152)"/>
</svg>
