<svg width="23" height="28" viewBox="0 0 23 28" fill="none" xmlns="http://www.w3.org/2000/svg">
<path d="M20.125 15.6904V11.2275C20.1229 9.23901 19.4001 7.31538 18.0846 5.79729C16.7691 4.2792 14.9458 3.2646 12.9375 2.93319V1.40344C12.9375 1.03122 12.786 0.674253 12.5165 0.411058C12.2469 0.147862 11.8812 0 11.5 0C11.1188 0 10.7531 0.147862 10.4835 0.411058C10.214 0.674253 10.0625 1.03122 10.0625 1.40344V2.93319C8.05423 3.2646 6.23088 4.2792 4.91537 5.79729C3.59985 7.31538 2.87706 9.23901 2.875 11.2275V15.6904C2.03615 15.98 1.30956 16.5158 0.794849 17.2243C0.280138 17.9329 0.00250055 18.7795 0 19.6481V22.455C0 22.8272 0.151451 23.1842 0.421034 23.4474C0.690618 23.7106 1.05625 23.8585 1.4375 23.8585H5.95125C6.28228 25.0477 7.00494 26.0975 8.00773 26.846C9.01052 27.5945 10.2377 28 11.5 28C12.7623 28 13.9895 27.5945 14.9923 26.846C15.9951 26.0975 16.7177 25.0477 17.0487 23.8585H21.5625C21.9437 23.8585 22.3094 23.7106 22.579 23.4474C22.8486 23.1842 23 22.8272 23 22.455V19.6481C22.9975 18.7795 22.7199 17.9329 22.2052 17.2243C21.6904 16.5158 20.9639 15.98 20.125 15.6904ZM5.75 11.2275C5.75 9.73865 6.3558 8.31077 7.43414 7.25798C8.51247 6.2052 9.97501 5.61375 11.5 5.61375C13.025 5.61375 14.4875 6.2052 15.5659 7.25798C16.6442 8.31077 17.25 9.73865 17.25 11.2275V15.4378H5.75V11.2275ZM11.5 25.2619C10.9983 25.2589 10.5061 25.1278 10.0723 24.8816C9.63857 24.6354 9.27836 24.2827 9.0275 23.8585H13.9725C13.7216 24.2827 13.3614 24.6354 12.9277 24.8816C12.4939 25.1278 12.0017 25.2589 11.5 25.2619ZM20.125 21.0516H2.875V19.6481C2.875 19.2759 3.02645 18.919 3.29603 18.6558C3.56562 18.3926 3.93125 18.2447 4.3125 18.2447H18.6875C19.0687 18.2447 19.4344 18.3926 19.704 18.6558C19.9736 18.919 20.125 19.2759 20.125 19.6481V21.0516Z" fill="white"/>
</svg>
