<svg width="17" height="21" viewBox="0 0 17 21" fill="none" xmlns="http://www.w3.org/2000/svg">
<path d="M14.5193 2.49111C12.9242 0.89608 10.7609 -1.68064e-08 8.50519 0C6.24947 1.68064e-08 4.08615 0.89608 2.49111 2.49111C0.89608 4.08615 1.68064e-08 6.24947 0 8.50519C-1.68064e-08 10.7609 0.89608 12.9242 2.49111 14.5193L7.77348 19.8117C7.86666 19.9056 7.97752 19.9802 8.09967 20.0311C8.22181 20.082 8.35282 20.1081 8.48514 20.1081C8.61746 20.1081 8.74848 20.082 8.87062 20.0311C8.99277 19.9802 9.10363 19.9056 9.19681 19.8117L14.5193 14.4692C16.1076 12.8808 17 10.7264 17 8.48013C17 6.23382 16.1076 4.07951 14.5193 2.49111ZM13.0859 13.0358L8.50519 17.6366L3.92447 13.0358C3.01949 12.13 2.40338 10.9762 2.15402 9.72033C1.90465 8.46443 2.03323 7.1628 2.52349 5.97996C3.01376 4.79713 3.8437 3.78619 4.9084 3.07496C5.97311 2.36372 7.22478 1.98411 8.50519 1.98411C9.7856 1.98411 11.0373 2.36372 12.102 3.07496C13.1667 3.78619 13.9966 4.79713 14.4869 5.97996C14.9772 7.1628 15.1057 8.46443 14.8564 9.72033C14.607 10.9762 13.9909 12.13 13.0859 13.0358ZM5.49815 5.42799C4.68897 6.23966 4.23459 7.33903 4.23459 8.48514C4.23459 9.63126 4.68897 10.7306 5.49815 11.5423C6.09932 12.1445 6.86494 12.5558 7.69895 12.7245C8.53297 12.8932 9.39823 12.8119 10.1862 12.4907C10.9742 12.1695 11.6497 11.6228 12.1282 10.9191C12.6066 10.2154 12.8665 9.38612 12.8754 8.53526C12.8799 7.96714 12.7705 7.40387 12.5536 6.87877C12.3366 6.35367 12.0166 5.8774 11.6125 5.47811C11.2152 5.07173 10.7415 4.74793 10.2186 4.52534C9.69574 4.30275 9.134 4.18576 8.56573 4.1811C7.99746 4.17644 7.43388 4.28421 6.90742 4.4982C6.38096 4.71219 5.90202 5.02818 5.49815 5.42799ZM10.1992 10.119C9.81931 10.5046 9.3173 10.7463 8.77896 10.8028C8.24062 10.8593 7.69937 10.727 7.24775 10.4286C6.79614 10.1302 6.46221 9.68419 6.30304 9.16682C6.14388 8.64945 6.16937 8.09286 6.37516 7.59221C6.58095 7.09155 6.95426 6.67793 7.43126 6.42205C7.90826 6.16617 8.45934 6.08393 8.99026 6.18939C9.52119 6.29484 9.999 6.58145 10.342 7.0002C10.685 7.41895 10.8719 7.94385 10.8707 8.48514C10.8561 9.10386 10.5966 9.6915 10.149 10.119H10.1992Z" fill="white"/>
</svg>
