<svg width="11" height="11" viewBox="0 0 11 11" fill="none" xmlns="http://www.w3.org/2000/svg">
<mask id="path-1-inside-1_1_45" fill="white">
<path d="Mnan nanL10.065 0.154455L9.00028 1.22787C8.45559 1.77699 7.59004 1.80011 6.87793 1.49825C6.14704 1.18843 5.34594 1.05637 4.54151 1.12253C3.28056 1.22625 2.10727 1.80915 1.2629 2.75138C0.418525 3.6936 -0.0327547 4.92353 0.00185293 6.18826C0.0364606 7.45299 0.554325 8.6564 1.44896 9.55104C2.3436 10.4457 3.54701 10.9635 4.81174 10.9981C6.07648 11.0328 7.3064 10.5815 8.24863 9.7371C9.19085 8.89273 9.77375 7.71944 9.87747 6.45849C9.90195 6.16086 9.89929 5.86368 9.87054 5.57035C9.71171 3.95005 9.67784 2.08621 10.8291 0.934991C10.8806 0.883891 10.9215 0.823097 10.9494 0.756114C10.9773 0.689132 10.9916 0.617286 10.9916 0.544724C10.9916 0.47216 10.9773 0.400314 10.9494 0.333332C10.9215 0.266349 10.8806 0.205555 10.8291 0.154455C10.7266 0.0553824 10.5896 2.96898e-06 10.447 2.96898e-06C10.3045 2.96898e-06 10.1675 0.0553824 10.065 0.154455Lnan nanZMnan nanL8.80626 6.04145C8.80626 6.80246 8.58059 7.54637 8.1578 8.17913C7.73501 8.81188 7.13408 9.30505 6.431 9.59628C5.72792 9.8875 4.95428 9.9637 4.2079 9.81523C3.46151 9.66677 2.77592 9.30031 2.2378 8.7622C1.69969 8.22408 1.33323 7.53849 1.18477 6.7921C1.0363 6.04572 1.1125 5.27208 1.40372 4.569C1.69495 3.86592 2.18812 3.26499 2.82087 2.8422C3.45363 2.41941 4.19754 2.19374 4.95855 2.19374C5.97902 2.19374 6.9577 2.59913 7.67929 3.32071C8.40088 4.0423 8.80626 5.02098 8.80626 6.04145Lnan nanZ"/>
</mask>
<path d="Mnan nanL10.065 0.154455L9.00028 1.22787C8.45559 1.77699 7.59004 1.80011 6.87793 1.49825C6.14704 1.18843 5.34594 1.05637 4.54151 1.12253C3.28056 1.22625 2.10727 1.80915 1.2629 2.75138C0.418525 3.6936 -0.0327547 4.92353 0.00185293 6.18826C0.0364606 7.45299 0.554325 8.6564 1.44896 9.55104C2.3436 10.4457 3.54701 10.9635 4.81174 10.9981C6.07648 11.0328 7.3064 10.5815 8.24863 9.7371C9.19085 8.89273 9.77375 7.71944 9.87747 6.45849C9.90195 6.16086 9.89929 5.86368 9.87054 5.57035C9.71171 3.95005 9.67784 2.08621 10.8291 0.934991C10.8806 0.883891 10.9215 0.823097 10.9494 0.756114C10.9773 0.689132 10.9916 0.617286 10.9916 0.544724C10.9916 0.47216 10.9773 0.400314 10.9494 0.333332C10.9215 0.266349 10.8806 0.205555 10.8291 0.154455C10.7266 0.0553824 10.5896 2.96898e-06 10.447 2.96898e-06C10.3045 2.96898e-06 10.1675 0.0553824 10.065 0.154455Lnan nanZMnan nanL8.80626 6.04145C8.80626 6.80246 8.58059 7.54637 8.1578 8.17913C7.73501 8.81188 7.13408 9.30505 6.431 9.59628C5.72792 9.8875 4.95428 9.9637 4.2079 9.81523C3.46151 9.66677 2.77592 9.30031 2.2378 8.7622C1.69969 8.22408 1.33323 7.53849 1.18477 6.7921C1.0363 6.04572 1.1125 5.27208 1.40372 4.569C1.69495 3.86592 2.18812 3.26499 2.82087 2.8422C3.45363 2.41941 4.19754 2.19374 4.95855 2.19374C5.97902 2.19374 6.9577 2.59913 7.67929 3.32071C8.40088 4.0423 8.80626 5.02098 8.80626 6.04145Lnan nanZ" fill="white"/>
<path d="M4.54151 1.12253L3.77547 -8.19046L4.54151 1.12253ZM10.8291 0.154455L17.4094 -6.4801L17.3667 -6.52247L17.3234 -6.56429L10.8291 0.154455ZM9.87054 5.57035L0.570673 6.48198L9.87054 5.57035ZM10.8291 0.934991L4.24868 -5.69956L4.23508 -5.68607L4.22154 -5.67253L10.8291 0.934991ZM6.87793 1.49825L10.5249 -7.10513L6.87793 1.49825ZM3.43073 -6.42619L2.36599 -5.35277L15.6346 7.80851L16.6993 6.7351L3.43073 -6.42619ZM10.5249 -7.10513C8.41409 -7.99991 6.0996 -8.38163 3.77547 -8.19046L5.30755 10.4355C4.59228 10.4944 3.87999 10.3768 3.23095 10.1016L10.5249 -7.10513ZM3.77547 -8.19046C0.132725 -7.89082 -3.25677 -6.20689 -5.69607 -3.48492L8.22187 8.98767C7.47132 9.82519 6.42839 10.3433 5.30755 10.4355L3.77547 -8.19046ZM-5.69607 -3.48492C-8.13537 -0.762941 -9.43907 2.79018 -9.33909 6.44386L9.3428 5.93266C9.37356 7.05687 8.97242 8.15014 8.22187 8.98767L-5.69607 -3.48492ZM-9.33909 6.44386C-9.23912 10.0975 -7.74306 13.5741 -5.15856 16.1586L8.05648 2.94352C8.85171 3.73875 9.31204 4.80845 9.3428 5.93266L-9.33909 6.44386ZM-5.15856 16.1586C-2.57405 18.7431 0.902464 20.2391 4.55614 20.3391L5.06734 1.6572C6.19155 1.68796 7.26125 2.14829 8.05648 2.94352L-5.15856 16.1586ZM4.55614 20.3391C8.20982 20.4391 11.7629 19.1354 14.4849 16.6961L2.01234 2.77813C2.84987 2.02758 3.94313 1.62644 5.06734 1.6572L4.55614 20.3391ZM14.4849 16.6961C17.2069 14.2568 18.8908 10.8673 19.1905 7.22453L0.564478 5.69245C0.656673 4.5716 1.17481 3.52868 2.01234 2.77813L14.4849 16.6961ZM19.1905 7.22453C19.2611 6.36516 19.2535 5.50649 19.1704 4.65873L0.570673 6.48198C0.545078 6.22087 0.542753 5.95656 0.564478 5.69245L19.1905 7.22453ZM17.4094 7.56954C18.3368 6.64977 19.0728 5.55548 19.5752 4.34977L2.32358 -2.83754C2.77009 -3.90928 3.42438 -4.88199 4.24868 -5.69956L17.4094 7.56954ZM19.5752 4.34977C20.0775 3.14405 20.3361 1.85083 20.3361 0.544724L1.64721 0.544724C1.64721 -0.616255 1.87707 -1.76578 2.32358 -2.83754L19.5752 4.34977ZM20.3361 0.544724C20.3361 -0.761382 20.0775 -2.0546 19.5752 -3.26032L2.32358 3.92699C1.87707 2.85523 1.64721 1.7057 1.64721 0.544724L20.3361 0.544724ZM19.5752 -3.26032C19.0728 -4.46603 18.3368 -5.56033 17.4094 -6.4801L4.24868 6.78901C3.42438 5.97144 2.77009 4.99873 2.32358 3.92699L19.5752 -3.26032ZM17.3234 -6.56429C15.4785 -8.3476 13.013 -9.34444 10.447 -9.34444L10.447 9.34444C8.1662 9.34444 5.97459 8.45836 4.33467 6.8732L17.3234 -6.56429ZM10.447 -9.34444C7.8811 -9.34444 5.41554 -8.3476 3.57062 -6.56429L16.5594 6.8732C14.9195 8.45836 12.7279 9.34444 10.447 9.34444L10.447 -9.34444ZM-0.538183 6.04145C-0.538183 4.95431 -0.215807 3.89157 0.388183 2.98763L15.9274 13.3706C17.377 11.2012 18.1507 8.65061 18.1507 6.04145L-0.538183 6.04145ZM0.388183 2.98763C0.992171 2.0837 1.85064 1.37917 2.85504 0.963138L10.007 18.2294C12.4175 17.2309 14.4778 15.5401 15.9274 13.3706L0.388183 2.98763ZM2.85504 0.963138C3.85944 0.547103 4.96464 0.438249 6.03091 0.650342L2.38489 18.9801C4.94391 19.4891 7.59641 19.2279 10.007 18.2294L2.85504 0.963138ZM6.03091 0.650342C7.09717 0.862435 8.07659 1.38595 8.84532 2.15468L-4.36971 15.3697C-2.52476 17.2147 -0.174142 18.4711 2.38489 18.9801L6.03091 0.650342ZM8.84532 2.15468C9.61405 2.92341 10.1376 3.90283 10.3497 4.96909L-7.98012 8.61512C-7.4711 11.1741 -6.21467 13.5248 -4.36971 15.3697L8.84532 2.15468ZM10.3497 4.96909C10.5618 6.03536 10.4529 7.14057 10.0369 8.14496L-7.22941 0.993035C-8.2279 3.40359 -8.48915 6.05609 -7.98012 8.61512L10.3497 4.96909ZM10.0369 8.14496C9.62083 9.14936 8.9163 10.0078 8.01237 10.6118L-2.37062 -4.92742C-4.54006 -3.47785 -6.23093 -1.41752 -7.22941 0.993035L10.0369 8.14496ZM8.01237 10.6118C7.10843 11.2158 6.04569 11.5382 4.95855 11.5382L4.95855 -7.1507C2.34939 -7.1507 -0.201181 -6.37699 -2.37062 -4.92742L8.01237 10.6118ZM4.95855 11.5382C3.50072 11.5382 2.10261 10.9591 1.07177 9.92823L14.2868 -3.28681C11.8128 -5.76082 8.45733 -7.1507 4.95855 -7.1507L4.95855 11.5382ZM1.07177 9.92823C0.0409362 8.89739 -0.538183 7.49928 -0.538183 6.04145L18.1507 6.04145C18.1507 2.54267 16.7608 -0.8128 14.2868 -3.28681L1.07177 9.92823ZM19.1704 4.65873C19.1071 4.01299 19.1578 4.05585 19.1098 4.39295C19.0523 4.79714 18.7671 6.21196 17.4366 7.54251L4.22154 -5.67253C1.73978 -3.19077 0.895911 -0.268412 0.607246 1.76058C0.328125 3.72248 0.47514 5.50741 0.570673 6.48198L19.1704 4.65873ZM2.36599 -5.35277C3.87122 -6.87027 5.67062 -7.47824 7.08838 -7.6175C8.44347 -7.75061 9.61306 -7.49166 10.5249 -7.10513L3.23095 10.1016C6.03385 11.2898 11.452 12.0251 15.6346 7.80851L2.36599 -5.35277Z" fill="white" mask="url(#path-1-inside-1_1_45)"/>
</svg>
