<svg width="25" height="25" viewBox="0 0 25 25" fill="none" xmlns="http://www.w3.org/2000/svg">
<path d="M19.7712 13.1676C19.7602 11.1259 20.6712 9.585 22.5152 8.45016C21.4835 6.95372 19.9248 6.1304 17.8668 5.96907C15.9185 5.81331 13.7891 7.1206 13.0098 7.1206C12.1866 7.1206 10.2986 6.0247 8.81684 6.0247C5.75446 6.07477 2.5 8.50022 2.5 13.4346C2.5 14.8921 2.76343 16.3978 3.29029 17.9517C3.99277 19.9933 6.52829 25 9.17357 24.9166C10.5566 24.8832 11.5335 23.9208 13.3336 23.9208C15.0788 23.9208 15.9843 24.9166 17.5265 24.9166C20.1937 24.8776 22.4878 20.3271 23.1573 18.2799C19.5791 16.5721 19.7712 13.2733 19.7712 13.1676ZM16.6649 4.03315C18.1631 2.23075 18.0259 0.589675 17.982 0C16.6594 0.0778816 15.1282 0.912328 14.2556 1.94148C13.2952 3.04295 12.7299 4.40587 12.8506 5.94126C14.283 6.05251 15.5892 5.30708 16.6649 4.03315Z" fill="black"/>
</svg>
