<svg width="22" height="22" viewBox="0 0 22 22" fill="none" xmlns="http://www.w3.org/2000/svg">
<path d="M12.8333 12.8333H11.9167V11.9167C11.9167 11.6735 11.8201 11.4404 11.6482 11.2685C11.4763 11.0966 11.2431 11 11 11C10.7569 11 10.5237 11.0966 10.3518 11.2685C10.1799 11.4404 10.0833 11.6735 10.0833 11.9167V12.8333H9.16666C8.92354 12.8333 8.69038 12.9299 8.51848 13.1018C8.34657 13.2737 8.24999 13.5069 8.24999 13.75C8.24999 13.9931 8.34657 14.2263 8.51848 14.3982C8.69038 14.5701 8.92354 14.6667 9.16666 14.6667H10.0833V15.5833C10.0833 15.8264 10.1799 16.0596 10.3518 16.2315C10.5237 16.4034 10.7569 16.5 11 16.5C11.2431 16.5 11.4763 16.4034 11.6482 16.2315C11.8201 16.0596 11.9167 15.8264 11.9167 15.5833V14.6667H12.8333C13.0764 14.6667 13.3096 14.5701 13.4815 14.3982C13.6534 14.2263 13.75 13.9931 13.75 13.75C13.75 13.5069 13.6534 13.2737 13.4815 13.1018C13.3096 12.9299 13.0764 12.8333 12.8333 12.8333ZM18.3333 8.19499C18.3238 8.11079 18.3053 8.02782 18.2783 7.94749V7.865C18.2343 7.77074 18.1755 7.6841 18.1042 7.60833L12.6042 2.10833C12.5284 2.03703 12.4417 1.97824 12.3475 1.93416H12.265C12.1719 1.88076 12.069 1.84648 11.9625 1.83333H6.41666C5.68731 1.83333 4.98784 2.12306 4.47211 2.63878C3.95639 3.15451 3.66666 3.85398 3.66666 4.58333V17.4167C3.66666 18.146 3.95639 18.8455 4.47211 19.3612C4.98784 19.8769 5.68731 20.1667 6.41666 20.1667H15.5833C16.3127 20.1667 17.0121 19.8769 17.5279 19.3612C18.0436 18.8455 18.3333 18.146 18.3333 17.4167V8.25C18.3333 8.25 18.3333 8.24999 18.3333 8.19499ZM12.8333 4.95916L15.2075 7.33333H13.75C13.5069 7.33333 13.2737 7.23675 13.1018 7.06484C12.9299 6.89293 12.8333 6.65978 12.8333 6.41666V4.95916ZM16.5 17.4167C16.5 17.6598 16.4034 17.8929 16.2315 18.0648C16.0596 18.2368 15.8264 18.3333 15.5833 18.3333H6.41666C6.17354 18.3333 5.94038 18.2368 5.76848 18.0648C5.59657 17.8929 5.49999 17.6598 5.49999 17.4167V4.58333C5.49999 4.34021 5.59657 4.10706 5.76848 3.93515C5.94038 3.76324 6.17354 3.66666 6.41666 3.66666H11V6.41666C11 7.14601 11.2897 7.84548 11.8054 8.36121C12.3212 8.87693 13.0206 9.16666 13.75 9.16666H16.5V17.4167Z" fill="#ABD8E0"/>
</svg>
