<svg width="12" height="12" viewBox="0 0 12 12" fill="none" xmlns="http://www.w3.org/2000/svg">
<path d="M7.00002 5.49998H6.50002V4.99998C6.50002 4.86738 6.44734 4.7402 6.35357 4.64643C6.2598 4.55266 6.13262 4.49998 6.00002 4.49998C5.86741 4.49998 5.74023 4.55266 5.64646 4.64643C5.55269 4.7402 5.50002 4.86738 5.50002 4.99998V5.49998H5.00002C4.86741 5.49998 4.74023 5.55266 4.64646 5.64643C4.55269 5.7402 4.50002 5.86738 4.50002 5.99998C4.50002 6.13259 4.55269 6.25977 4.64646 6.35354C4.74023 6.44731 4.86741 6.49998 5.00002 6.49998H5.50002V6.99998C5.50002 7.13259 5.55269 7.25977 5.64646 7.35354C5.74023 7.44731 5.86741 7.49998 6.00002 7.49998C6.13262 7.49998 6.2598 7.44731 6.35357 7.35354C6.44734 7.25977 6.50002 7.13259 6.50002 6.99998V6.49998H7.00002C7.13262 6.49998 7.2598 6.44731 7.35357 6.35354C7.44734 6.25977 7.50002 6.13259 7.50002 5.99998C7.50002 5.86738 7.44734 5.7402 7.35357 5.64643C7.2598 5.55266 7.13262 5.49998 7.00002 5.49998ZM10.08 2.49998C9.54687 1.97234 8.84268 1.65262 8.09453 1.59853C7.34638 1.54443 6.60352 1.75952 6.00002 2.20498C5.36384 1.7318 4.57201 1.51724 3.78398 1.6045C2.99594 1.69177 2.27024 2.07437 1.753 2.67528C1.23577 3.27618 0.965427 4.05075 0.996416 4.84299C1.02741 5.63524 1.35742 6.38632 1.92002 6.94498L4.92002 9.96999C5.20127 10.2509 5.58251 10.4087 5.98002 10.4087C6.37752 10.4087 6.75877 10.2509 7.04002 9.96999L10.04 6.94498C10.3355 6.65631 10.571 6.31209 10.733 5.9321C10.895 5.55212 10.9803 5.14386 10.984 4.7308C10.9877 4.31774 10.9098 3.90801 10.7546 3.52517C10.5995 3.14234 10.3702 2.79393 10.08 2.49998ZM9.37502 6.22998L6.37502 9.22998C6.32853 9.27685 6.27323 9.31405 6.2123 9.33943C6.15137 9.36482 6.08602 9.37788 6.02002 9.37788C5.95401 9.37788 5.88866 9.36482 5.82773 9.33943C5.7668 9.31405 5.7115 9.27685 5.66502 9.22998L2.66502 6.22998C2.27289 5.82916 2.05332 5.29072 2.05332 4.72998C2.05332 4.16925 2.27289 3.63081 2.66502 3.22998C3.06459 2.83548 3.6035 2.61427 4.16502 2.61427C4.72653 2.61427 5.26544 2.83548 5.66502 3.22998C5.7115 3.27685 5.7668 3.31405 5.82773 3.33943C5.88866 3.36481 5.95401 3.37788 6.02002 3.37788C6.08602 3.37788 6.15137 3.36481 6.2123 3.33943C6.27323 3.31405 6.32853 3.27685 6.37502 3.22998C6.77459 2.83548 7.3135 2.61427 7.87502 2.61427C8.43653 2.61427 8.97544 2.83548 9.37502 3.22998C9.77015 3.63126 9.99162 4.17183 9.99162 4.73499C9.99162 5.29814 9.77015 5.83871 9.37502 6.23998V6.22998Z" fill="#ABD8E0"/>
</svg>
