<svg width="10" height="10" viewBox="0 0 10 10" fill="none" xmlns="http://www.w3.org/2000/svg">
<path d="M9.90039 4C9.70038 3.4 9.10036 3 8.50034 3C7.6503 3 7.00028 3.65 7.00028 4.5C7.00028 5.15 7.40029 5.7 8.00032 5.9V6.75C8.00032 8 7.00028 9 5.75023 9C4.50018 9 3.50014 8 3.50014 6.75V6.25L5.0502 5C5.65022 4.5 6.00024 3.8 6.00024 3.05V0.5C6.00024 0.2 5.80023 0 5.50022 0H4.50018C4.20017 0 4.00016 0.2 4.00016 0.5C4.00016 0.8 4.20017 1 4.50018 1H5.0002V3.05C5.0002 3.5 4.80019 3.95 4.45018 4.2L3.00012 5.35L1.55006 4.2C1.20005 3.95 1.00004 3.5 1.00004 3.05V1H1.50006C1.80007 1 2.00008 0.8 2.00008 0.5C2.00008 0.2 1.80007 0 1.50006 0H0.50002C0.200008 0 0 0.2 0 0.5V3.05C0 3.8 0.350014 4.55 0.950038 5L2.5001 6.25V6.75C2.5001 8.55 3.95016 10 5.75023 10C7.5503 10 9.00036 8.55 9.00036 6.75V5.9C9.80039 5.65 10.2004 4.8 9.90039 4Z" fill="#ABD8E0"/>
</svg>
