<svg width="32" height="32" viewBox="0 0 32 32" fill="none" xmlns="http://www.w3.org/2000/svg">
<path d="M10.6667 26.6667H6.66666C6.31303 26.6667 5.9739 26.5262 5.72385 26.2761C5.4738 26.0261 5.33332 25.687 5.33332 25.3333V21.3333C5.33332 20.9797 5.19285 20.6406 4.9428 20.3905C4.69275 20.1405 4.35361 20 3.99999 20C3.64637 20 3.30723 20.1405 3.05718 20.3905C2.80713 20.6406 2.66666 20.9797 2.66666 21.3333V25.3333C2.66666 26.3942 3.08808 27.4116 3.83823 28.1618C4.58838 28.9119 5.60579 29.3333 6.66666 29.3333H10.6667C11.0203 29.3333 11.3594 29.1929 11.6095 28.9428C11.8595 28.6928 12 28.3536 12 28C12 27.6464 11.8595 27.3072 11.6095 27.0572C11.3594 26.8071 11.0203 26.6667 10.6667 26.6667ZM3.99999 12C4.35361 12 4.69275 11.8595 4.9428 11.6095C5.19285 11.3594 5.33332 11.0203 5.33332 10.6667V6.66667C5.33332 6.31305 5.4738 5.97391 5.72385 5.72386C5.9739 5.47381 6.31303 5.33334 6.66666 5.33334H10.6667C11.0203 5.33334 11.3594 5.19286 11.6095 4.94281C11.8595 4.69277 12 4.35363 12 4.00001C12 3.64638 11.8595 3.30724 11.6095 3.0572C11.3594 2.80715 11.0203 2.66667 10.6667 2.66667H6.66666C5.60579 2.66667 4.58838 3.0881 3.83823 3.83824C3.08808 4.58839 2.66666 5.60581 2.66666 6.66667V10.6667C2.66666 11.0203 2.80713 11.3594 3.05718 11.6095C3.30723 11.8595 3.64637 12 3.99999 12ZM25.3333 2.66667H21.3333C20.9797 2.66667 20.6406 2.80715 20.3905 3.0572C20.1405 3.30724 20 3.64638 20 4.00001C20 4.35363 20.1405 4.69277 20.3905 4.94281C20.6406 5.19286 20.9797 5.33334 21.3333 5.33334H25.3333C25.6869 5.33334 26.0261 5.47381 26.2761 5.72386C26.5262 5.97391 26.6667 6.31305 26.6667 6.66667V10.6667C26.6667 11.0203 26.8071 11.3594 27.0572 11.6095C27.3072 11.8595 27.6464 12 28 12C28.3536 12 28.6928 11.8595 28.9428 11.6095C29.1929 11.3594 29.3333 11.0203 29.3333 10.6667V6.66667C29.3333 5.60581 28.9119 4.58839 28.1618 3.83824C27.4116 3.0881 26.3942 2.66667 25.3333 2.66667ZM21.3333 16C21.3333 15.6464 21.1928 15.3072 20.9428 15.0572C20.6928 14.8071 20.3536 14.6667 20 14.6667H17.3333V12C17.3333 11.6464 17.1928 11.3072 16.9428 11.0572C16.6928 10.8071 16.3536 10.6667 16 10.6667C15.6464 10.6667 15.3072 10.8071 15.0572 11.0572C14.8071 11.3072 14.6667 11.6464 14.6667 12V14.6667H12C11.6464 14.6667 11.3072 14.8071 11.0572 15.0572C10.8071 15.3072 10.6667 15.6464 10.6667 16C10.6667 16.3536 10.8071 16.6928 11.0572 16.9428C11.3072 17.1929 11.6464 17.3333 12 17.3333H14.6667V20C14.6667 20.3536 14.8071 20.6928 15.0572 20.9428C15.3072 21.1929 15.6464 21.3333 16 21.3333C16.3536 21.3333 16.6928 21.1929 16.9428 20.9428C17.1928 20.6928 17.3333 20.3536 17.3333 20V17.3333H20C20.3536 17.3333 20.6928 17.1929 20.9428 16.9428C21.1928 16.6928 21.3333 16.3536 21.3333 16ZM28 20C27.6464 20 27.3072 20.1405 27.0572 20.3905C26.8071 20.6406 26.6667 20.9797 26.6667 21.3333V25.3333C26.6667 25.687 26.5262 26.0261 26.2761 26.2761C26.0261 26.5262 25.6869 26.6667 25.3333 26.6667H21.3333C20.9797 26.6667 20.6406 26.8071 20.3905 27.0572C20.1405 27.3072 20 27.6464 20 28C20 28.3536 20.1405 28.6928 20.3905 28.9428C20.6406 29.1929 20.9797 29.3333 21.3333 29.3333H25.3333C26.3942 29.3333 27.4116 28.9119 28.1618 28.1618C28.9119 27.4116 29.3333 26.3942 29.3333 25.3333V21.3333C29.3333 20.9797 29.1929 20.6406 28.9428 20.3905C28.6928 20.1405 28.3536 20 28 20Z" fill="#ABD8E0"/>
</svg>
