<svg width="11" height="11" viewBox="0 0 11 11" fill="none" xmlns="http://www.w3.org/2000/svg">
<g clip-path="url(#clip0_1_200)">
<path d="M8.90999 5.95832C8.80915 5.95832 8.70374 5.92624 8.6029 5.90332C8.39871 5.85833 8.19804 5.79859 8.00248 5.72457C7.78986 5.64722 7.55614 5.65124 7.34629 5.73585C7.13645 5.82047 6.96531 5.9797 6.86582 6.18291L6.76499 6.38916C6.31857 6.14082 5.90835 5.83239 5.54582 5.47249C5.18592 5.10996 4.87749 4.69974 4.62915 4.25332L4.82165 4.12499C5.02486 4.02549 5.18409 3.85436 5.26871 3.64452C5.35332 3.43467 5.35734 3.20095 5.27999 2.98832C5.20721 2.79235 5.1475 2.59177 5.10124 2.38791C5.07832 2.28707 5.05999 2.18166 5.04624 2.07624C4.99058 1.7534 4.82148 1.46104 4.56939 1.25181C4.31731 1.04258 3.9988 0.930228 3.67124 0.93499H2.29624C2.09871 0.933136 1.9031 0.973863 1.72273 1.0544C1.54235 1.13494 1.38145 1.25339 1.25097 1.4017C1.1205 1.55001 1.02351 1.7247 0.966605 1.91386C0.909704 2.10302 0.89423 2.30223 0.921235 2.49791C1.16541 4.41804 2.04233 6.2021 3.41349 7.56828C4.78465 8.93446 6.57189 9.80489 8.4929 10.0421H8.66707C9.00505 10.0426 9.33138 9.91857 9.58373 9.69374C9.72873 9.56405 9.84457 9.40507 9.92357 9.2273C10.0026 9.04953 10.043 8.85702 10.0421 8.66249V7.28749C10.0365 6.96913 9.92052 6.66258 9.71406 6.42017C9.50759 6.17776 9.2234 6.01453 8.90999 5.95832ZM9.13915 8.70832C9.13907 8.7734 9.12513 8.83771 9.09826 8.89698C9.07139 8.95625 9.03221 9.00912 8.98332 9.05207C8.93226 9.09654 8.87239 9.12972 8.80763 9.14947C8.74287 9.16921 8.67467 9.17507 8.60749 9.16666C6.89098 8.94657 5.29659 8.1613 4.07581 6.93471C2.85503 5.70812 2.07734 4.11002 1.8654 2.39249C1.85811 2.32535 1.8645 2.25743 1.88419 2.19284C1.90389 2.12824 1.93648 2.06831 1.97999 2.01666C2.02294 1.96777 2.0758 1.92858 2.13508 1.90172C2.19435 1.87485 2.25866 1.86091 2.32374 1.86082H3.69873C3.80532 1.85845 3.9094 1.89331 3.99305 1.9594C4.07671 2.02549 4.13471 2.11867 4.15707 2.22291C4.1754 2.34818 4.19832 2.47193 4.22582 2.59416C4.27876 2.83576 4.34923 3.0732 4.43665 3.30457L3.79498 3.60249C3.74012 3.62766 3.69077 3.66342 3.64977 3.70772C3.60876 3.75202 3.57691 3.80398 3.55604 3.86062C3.53517 3.91726 3.5257 3.97747 3.52817 4.03778C3.53063 4.09809 3.54498 4.15732 3.5704 4.21207C4.23004 5.625 5.36581 6.76077 6.77874 7.42041C6.89032 7.46625 7.01548 7.46625 7.12707 7.42041C7.18423 7.39996 7.23676 7.36837 7.2816 7.32745C7.32645 7.28654 7.36273 7.23712 7.38832 7.18207L7.67248 6.54041C7.90943 6.62514 8.15125 6.69555 8.39665 6.75124C8.51887 6.77874 8.64262 6.80166 8.7679 6.81999C8.87214 6.84235 8.96532 6.90035 9.03141 6.98401C9.0975 7.06766 9.13236 7.17174 9.12998 7.27832L9.13915 8.70832Z" fill="#ABD8E0"/>
</g>
<defs>
<clipPath id="clip0_1_200">
<rect width="11" height="11" fill="white"/>
</clipPath>
</defs>
</svg>
