<svg width="17" height="17" viewBox="0 0 17 17" fill="none" xmlns="http://www.w3.org/2000/svg">
<path d="M8.7125 8.65582C9.09045 8.32867 9.3936 7.92403 9.60137 7.46938C9.80914 7.01473 9.91667 6.5207 9.91667 6.02082C9.91667 5.08151 9.54353 4.18068 8.87934 3.51649C8.21515 2.8523 7.31431 2.47916 6.375 2.47916C5.43569 2.47916 4.53486 2.8523 3.87067 3.51649C3.20647 4.18068 2.83334 5.08151 2.83334 6.02082C2.83333 6.5207 2.94086 7.01473 3.14863 7.46938C3.3564 7.92403 3.65955 8.32867 4.0375 8.65582C3.04593 9.10483 2.20467 9.82991 1.61428 10.7444C1.02389 11.6588 0.709378 12.724 0.708336 13.8125C0.708336 14.0004 0.782964 14.1805 0.915802 14.3134C1.04864 14.4462 1.22881 14.5208 1.41667 14.5208C1.60453 14.5208 1.7847 14.4462 1.91754 14.3134C2.05037 14.1805 2.125 14.0004 2.125 13.8125C2.125 12.6853 2.57277 11.6043 3.3698 10.8073C4.16683 10.0103 5.24783 9.56249 6.375 9.56249C7.50217 9.56249 8.58318 10.0103 9.38021 10.8073C10.1772 11.6043 10.625 12.6853 10.625 13.8125C10.625 14.0004 10.6996 14.1805 10.8325 14.3134C10.9653 14.4462 11.1455 14.5208 11.3333 14.5208C11.5212 14.5208 11.7014 14.4462 11.8342 14.3134C11.967 14.1805 12.0417 14.0004 12.0417 13.8125C12.0406 12.724 11.7261 11.6588 11.1357 10.7444C10.5453 9.82991 9.70407 9.10483 8.7125 8.65582ZM6.375 8.14582C5.95472 8.14582 5.54387 8.02119 5.19442 7.7877C4.84496 7.5542 4.57259 7.22232 4.41176 6.83403C4.25092 6.44573 4.20884 6.01847 4.29083 5.60626C4.37283 5.19405 4.57521 4.81541 4.8724 4.51822C5.16959 4.22104 5.54823 4.01865 5.96044 3.93665C6.37265 3.85466 6.79991 3.89674 7.1882 4.05758C7.5765 4.21842 7.90838 4.49078 8.14188 4.84024C8.37537 5.18969 8.5 5.60054 8.5 6.02082C8.5 6.58441 8.27612 7.12491 7.8776 7.52343C7.47909 7.92194 6.93859 8.14582 6.375 8.14582ZM13.2742 8.37249C13.7275 7.86202 14.0236 7.2314 14.1269 6.55656C14.2301 5.88172 14.1362 5.19142 13.8563 4.56874C13.5763 3.94606 13.1224 3.41755 12.5492 3.04683C11.9759 2.67611 11.3077 2.47897 10.625 2.47916C10.4371 2.47916 10.257 2.55378 10.1241 2.68662C9.9913 2.81946 9.91667 2.99963 9.91667 3.18749C9.91667 3.37535 9.9913 3.55552 10.1241 3.68836C10.257 3.8212 10.4371 3.89582 10.625 3.89582C11.1886 3.89582 11.7291 4.11971 12.1276 4.51822C12.5261 4.91674 12.75 5.45724 12.75 6.02082C12.749 6.39287 12.6503 6.75813 12.4639 7.08008C12.2774 7.40203 12.0097 7.66938 11.6875 7.85541C11.5825 7.91598 11.4948 8.0025 11.4328 8.10668C11.3707 8.21086 11.3365 8.32921 11.3333 8.45041C11.3304 8.57066 11.3581 8.68968 11.4138 8.79626C11.4696 8.90283 11.5516 8.99345 11.6521 9.05957L11.9283 9.24374L12.0204 9.29332C12.8742 9.69829 13.5946 10.3388 14.0965 11.1395C14.5985 11.9401 14.8612 12.8675 14.8538 13.8125C14.8538 14.0004 14.9284 14.1805 15.0612 14.3134C15.1941 14.4462 15.3742 14.5208 15.5621 14.5208C15.7499 14.5208 15.9301 14.4462 16.063 14.3134C16.1958 14.1805 16.2704 14.0004 16.2704 13.8125C16.2762 12.7255 16.004 11.6551 15.4795 10.703C14.9551 9.75081 14.196 8.94859 13.2742 8.37249Z" fill="#F01C3C"/>
</svg>
