<svg width="13" height="13" viewBox="0 0 13 13" fill="none" xmlns="http://www.w3.org/2000/svg">
<path d="M5.41666 9.50624L4.45791 10.4379C4.20651 10.6893 3.86554 10.8306 3.51 10.8306C3.15446 10.8306 2.81348 10.6893 2.56208 10.4379C2.31068 10.1865 2.16944 9.84553 2.16944 9.49C2.16944 9.13446 2.31068 8.79348 2.56208 8.54208L5.02125 6.0775C5.26262 5.83534 5.58784 5.69523 5.92963 5.68616C6.27142 5.67708 6.60362 5.79974 6.8575 6.02875L6.9225 6.08291C7.02521 6.18347 7.16367 6.23911 7.30741 6.23759C7.45115 6.23606 7.5884 6.1775 7.68896 6.07479C7.78952 5.97207 7.84516 5.83361 7.84363 5.68988C7.84211 5.54614 7.78355 5.40889 7.68083 5.30833C7.65026 5.2688 7.61772 5.23084 7.58333 5.19458C7.12094 4.79229 6.52293 4.58079 5.91043 4.60291C5.29793 4.62504 4.71674 4.87914 4.28458 5.31375L1.79291 7.77833C1.36952 8.23918 1.14054 8.84577 1.15379 9.47144C1.16703 10.0971 1.42148 10.6935 1.864 11.136C2.30651 11.5785 2.90288 11.833 3.52855 11.8462C4.15422 11.8595 4.76082 11.6305 5.22166 11.2071L6.15875 10.2917C6.25127 10.1907 6.30214 10.0585 6.3011 9.92156C6.30007 9.78463 6.24721 9.65318 6.15317 9.55365C6.05914 9.45412 5.93089 9.3939 5.79424 9.3851C5.6576 9.37631 5.52269 9.41959 5.41666 9.50624ZM11.2071 1.79291C10.7514 1.34008 10.1351 1.08592 9.49271 1.08592C8.8503 1.08592 8.23399 1.34008 7.77833 1.79291L6.84125 2.70833C6.74872 2.80927 6.69786 2.94151 6.69889 3.07843C6.69993 3.21536 6.75278 3.34681 6.84682 3.44634C6.94086 3.54587 7.06911 3.60609 7.20575 3.61489C7.3424 3.62368 7.47731 3.5804 7.58333 3.49375L8.52041 2.56208C8.77182 2.31068 9.11279 2.16944 9.46833 2.16944C9.82387 2.16944 10.1648 2.31068 10.4162 2.56208C10.6677 2.81348 10.8089 3.15446 10.8089 3.51C10.8089 3.86553 10.6677 4.20651 10.4162 4.45791L7.95708 6.9225C7.71571 7.16465 7.39049 7.30476 7.0487 7.31384C6.70691 7.32291 6.37471 7.20025 6.12083 6.97125L6.05583 6.91708C5.95312 6.81652 5.81466 6.76088 5.67092 6.7624C5.52718 6.76393 5.38993 6.82249 5.28937 6.9252C5.18881 7.02792 5.13317 7.16638 5.1347 7.31012C5.13622 7.45385 5.19478 7.5911 5.2975 7.69166C5.33684 7.7319 5.37844 7.76988 5.42208 7.80541C5.88503 8.20649 6.48279 8.4172 7.09491 8.39508C7.70703 8.37297 8.28803 8.11968 8.72083 7.68625L11.1854 5.22166C11.6411 4.76887 11.8992 4.15416 11.9033 3.51175C11.9073 2.86935 11.657 2.25143 11.2071 1.79291Z" fill="#01213E" fill-opacity="0.5"/>
</svg>
