<svg width="10" height="10" viewBox="0 0 10 10" fill="none" xmlns="http://www.w3.org/2000/svg">
<path d="M3.00985 4.4998C2.9111 4.4998 2.81457 4.52912 2.73246 4.58406C2.65035 4.639 2.58635 4.71709 2.54856 4.80845C2.51077 4.8998 2.50088 5.00033 2.52015 5.09732C2.53941 5.19431 2.58697 5.28339 2.6568 5.35332C2.72662 5.42324 2.81559 5.47086 2.91244 5.49015C3.0093 5.50944 3.10969 5.49954 3.20092 5.4617C3.29216 5.42386 3.37014 5.35977 3.425 5.27755C3.47986 5.19533 3.50915 5.09867 3.50915 4.99978C3.50915 4.86718 3.45654 4.74001 3.36291 4.64624C3.26927 4.55248 3.14227 4.4998 3.00985 4.4998ZM5.00704 4.4998C4.90829 4.4998 4.81175 4.52912 4.72964 4.58406C4.64753 4.639 4.58354 4.71709 4.54575 4.80845C4.50796 4.8998 4.49807 5.00033 4.51733 5.09732C4.5366 5.19431 4.58415 5.28339 4.65398 5.35332C4.72381 5.42324 4.81277 5.47086 4.90963 5.49015C5.00648 5.50944 5.10687 5.49954 5.19811 5.4617C5.28934 5.42386 5.36732 5.35977 5.42219 5.27755C5.47705 5.19533 5.50633 5.09867 5.50633 4.99978C5.50633 4.86718 5.45373 4.74001 5.36009 4.64624C5.26646 4.55248 5.13946 4.4998 5.00704 4.4998ZM7.00422 4.4998C6.90547 4.4998 6.80894 4.52912 6.72683 4.58406C6.64472 4.639 6.58072 4.71709 6.54293 4.80845C6.50514 4.8998 6.49525 5.00033 6.51452 5.09732C6.53378 5.19431 6.58134 5.28339 6.65117 5.35332C6.72099 5.42324 6.80996 5.47086 6.90681 5.49015C7.00367 5.50944 7.10406 5.49954 7.19529 5.4617C7.28653 5.42386 7.36451 5.35977 7.41937 5.27755C7.47424 5.19533 7.50352 5.09867 7.50352 4.99978C7.50352 4.86718 7.45091 4.74001 7.35728 4.64624C7.26364 4.55248 7.13664 4.4998 7.00422 4.4998ZM5.00704 0C4.35135 0 3.70209 0.129323 3.09631 0.380586C2.49054 0.631848 1.94012 1.00013 1.47648 1.4644C0.540116 2.40204 0.0140734 3.67375 0.0140734 4.99978C0.00970842 6.15429 0.408913 7.27395 1.14248 8.16464L0.14389 9.16459C0.0746092 9.2349 0.0276772 9.32419 0.00901647 9.42118C-0.00964429 9.51817 0.000802318 9.61852 0.0390381 9.70957C0.0805086 9.79953 0.147737 9.87512 0.232189 9.92676C0.316642 9.97839 0.414509 10.0037 0.51337 9.99956H5.00704C6.33125 9.99956 7.60123 9.4728 8.53759 8.53516C9.47396 7.59752 10 6.3258 10 4.99978C10 3.67375 9.47396 2.40204 8.53759 1.4644C7.60123 0.526761 6.33125 0 5.00704 0ZM5.00704 8.9996H1.71667L2.18102 8.53462C2.2282 8.48832 2.26573 8.4331 2.29144 8.37216C2.31715 8.31123 2.33053 8.24579 2.33081 8.17964C2.32893 8.04776 2.27509 7.92196 2.18102 7.82965C1.52723 7.1757 1.1201 6.31499 1.02899 5.39416C0.937875 4.47333 1.16842 3.54935 1.68134 2.77964C2.19426 2.00993 2.95782 1.44212 3.84194 1.17293C4.72605 0.903754 5.67602 0.94986 6.53 1.3034C7.38397 1.65694 8.08912 2.29604 8.5253 3.11181C8.96148 3.92758 9.1017 4.86956 8.92208 5.77725C8.74246 6.68494 8.25411 7.50219 7.54024 8.08976C6.82636 8.67733 5.93112 8.99887 5.00704 8.9996Z" fill="#ABD8E0"/>
</svg>
