<svg width="42" height="42" viewBox="0 0 42 42" fill="none" xmlns="http://www.w3.org/2000/svg">
<path d="M29.75 19.2503H16.4675L22.2425 13.4928C22.5721 13.1633 22.7572 12.7164 22.7572 12.2503C22.7572 11.7843 22.5721 11.3374 22.2425 11.0078C21.913 10.6783 21.4661 10.4932 21 10.4932C20.534 10.4932 20.0871 10.6783 19.7575 11.0078L11.0075 19.7578C10.8482 19.9243 10.7233 20.1205 10.64 20.3353C10.465 20.7614 10.465 21.2393 10.64 21.6653C10.7233 21.8801 10.8482 22.0764 11.0075 22.2428L19.7575 30.9928C19.9202 31.1568 20.1138 31.287 20.327 31.3759C20.5403 31.4647 20.769 31.5105 21 31.5105C21.2311 31.5105 21.4598 31.4647 21.673 31.3759C21.8863 31.287 22.0798 31.1568 22.2425 30.9928C22.4066 30.8301 22.5367 30.6366 22.6256 30.4233C22.7144 30.2101 22.7602 29.9813 22.7602 29.7503C22.7602 29.5193 22.7144 29.2906 22.6256 29.0773C22.5367 28.8641 22.4066 28.6705 22.2425 28.5078L16.4675 22.7503H29.75C30.2142 22.7503 30.6593 22.566 30.9875 22.2378C31.3157 21.9096 31.5 21.4645 31.5 21.0003C31.5 20.5362 31.3157 20.0911 30.9875 19.7629C30.6593 19.4347 30.2142 19.2503 29.75 19.2503Z" fill="white"/>
</svg>
