<svg width="23" height="24" viewBox="0 0 23 24" fill="none" xmlns="http://www.w3.org/2000/svg">
<g clip-path="url(#clip0_0_3)">
<path d="M22.9565 12.2659C22.9565 11.2821 22.8784 10.5641 22.7093 9.8196H11.7125V14.2602H18.1674C18.0373 15.3637 17.3345 17.0256 15.7728 18.1424L15.7509 18.291L19.2279 21.0428L19.4688 21.0674C21.6811 18.98 22.9565 15.9088 22.9565 12.2659Z" fill="#4285F4"/>
<path d="M11.7125 23.9657C14.8748 23.9657 17.5296 22.9021 19.4688 21.0674L15.7728 18.1423C14.7838 18.847 13.4563 19.3389 11.7125 19.3389C8.61521 19.3389 5.98643 17.2516 5.04933 14.3666L4.91198 14.3785L1.29658 17.237L1.2493 17.3712C3.17533 21.28 7.13157 23.9657 11.7125 23.9657Z" fill="#34A853"/>
<path d="M5.04934 14.3666C4.80208 13.6221 4.65899 12.8243 4.65899 12C4.65899 11.1757 4.80208 10.378 5.03633 9.63345L5.02979 9.47489L1.36908 6.57049L1.2493 6.62869C0.455492 8.25073 0 10.0722 0 12C0 13.9278 0.455492 15.7492 1.2493 17.3713L5.04934 14.3666Z" fill="#FBBC05"/>
<path d="M11.7125 4.661C13.9118 4.661 15.3954 5.63155 16.2413 6.44262L19.5468 3.14538C17.5167 1.21757 14.8748 0.0342928 11.7125 0.0342928C7.13157 0.0342928 3.17533 2.71991 1.2493 6.62868L5.03633 9.63344C5.98643 6.74838 8.61521 4.661 11.7125 4.661Z" fill="#EB4335"/>
</g>
<defs>
<clipPath id="clip0_0_3">
<rect width="22.9565" height="24" rx="11.3587" fill="white"/>
</clipPath>
</defs>
</svg>
