<svg width="17" height="17" viewBox="0 0 17 17" fill="none" xmlns="http://www.w3.org/2000/svg">
<path d="M13.77 9.20832C13.6141 9.20832 13.4512 9.15874 13.2954 9.12332C12.9798 9.05378 12.6697 8.96146 12.3675 8.84707C12.0389 8.72753 11.6777 8.73373 11.3534 8.8645C11.0291 8.99527 10.7646 9.24135 10.6108 9.5554L10.455 9.87415C9.76506 9.49036 9.13109 9.01369 8.57081 8.45749C8.01461 7.89721 7.53794 7.26324 7.15415 6.57332L7.45165 6.37499C7.7657 6.22122 8.01178 5.95674 8.14255 5.63244C8.27332 5.30813 8.27953 4.94693 8.15998 4.61832C8.04751 4.31545 7.95523 4.00547 7.88373 3.6904C7.84831 3.53457 7.81998 3.37165 7.79873 3.20874C7.71271 2.7098 7.45138 2.25797 7.06179 1.93462C6.67221 1.61126 6.17997 1.43763 5.67373 1.44499H3.54873C3.24346 1.44212 2.94116 1.50506 2.6624 1.62953C2.38364 1.754 2.13497 1.93706 1.93333 2.16627C1.73168 2.39548 1.58178 2.66544 1.49385 2.95779C1.40591 3.25013 1.38199 3.55799 1.42373 3.8604C1.80109 6.82788 3.15633 9.58507 5.2754 11.6964C7.39447 13.8078 10.1566 15.153 13.1254 15.5196H13.3946C13.9169 15.5203 14.4212 15.3287 14.8112 14.9812C15.0353 14.7808 15.2143 14.5351 15.3364 14.2604C15.4585 13.9856 15.521 13.6881 15.5196 13.3875V11.2625C15.5109 10.7705 15.3317 10.2967 15.0126 9.92208C14.6936 9.54746 14.2543 9.29518 13.77 9.20832ZM14.1241 13.4583C14.124 13.5589 14.1025 13.6583 14.0609 13.7499C14.0194 13.8415 13.9589 13.9232 13.8833 13.9896C13.8044 14.0583 13.7119 14.1096 13.6118 14.1401C13.5117 14.1706 13.4063 14.1797 13.3025 14.1667C10.6497 13.8265 8.18565 12.6129 6.29899 10.7173C4.41233 8.82164 3.21044 6.35185 2.8829 3.69749C2.87162 3.59373 2.8815 3.48876 2.91194 3.38893C2.94238 3.2891 2.99274 3.19647 3.05998 3.11665C3.12636 3.0411 3.20806 2.98054 3.29966 2.93902C3.39126 2.89749 3.49066 2.87595 3.59123 2.87582H5.71623C5.88095 2.87216 6.0418 2.92603 6.17108 3.02816C6.30037 3.1303 6.39 3.27431 6.42456 3.4354C6.4529 3.62902 6.48831 3.82027 6.53081 4.00915C6.61264 4.38255 6.72154 4.74949 6.85665 5.10707L5.86498 5.56749C5.78019 5.60639 5.70392 5.66166 5.64055 5.73012C5.57718 5.79858 5.52796 5.87888 5.4957 5.96642C5.46345 6.05395 5.44881 6.147 5.45262 6.24021C5.45643 6.33342 5.47861 6.42496 5.5179 6.50957C6.53733 8.69319 8.29261 10.4485 10.4762 11.4679C10.6487 11.5388 10.8421 11.5388 11.0146 11.4679C11.1029 11.4363 11.1841 11.3875 11.2534 11.3242C11.3227 11.261 11.3788 11.1846 11.4183 11.0996L11.8575 10.1079C12.2237 10.2389 12.5974 10.3477 12.9766 10.4337C13.1655 10.4762 13.3568 10.5117 13.5504 10.54C13.7115 10.5745 13.8555 10.6642 13.9576 10.7935C14.0598 10.9228 14.1136 11.0836 14.11 11.2483L14.1241 13.4583Z" fill="#F01C3C"/>
</svg>
