<svg width="17" height="17" viewBox="0 0 17 17" fill="none" xmlns="http://www.w3.org/2000/svg">
<path d="M14.875 7.43749H14.1667V6.72916C14.1667 6.5413 14.092 6.36113 13.9592 6.22829C13.8264 6.09545 13.6462 6.02082 13.4583 6.02082C13.2705 6.02082 13.0903 6.09545 12.9575 6.22829C12.8246 6.36113 12.75 6.5413 12.75 6.72916V7.43749H12.0417C11.8538 7.43749 11.6736 7.51212 11.5408 7.64496C11.408 7.77779 11.3333 7.95796 11.3333 8.14582C11.3333 8.33369 11.408 8.51385 11.5408 8.64669C11.6736 8.77953 11.8538 8.85416 12.0417 8.85416H12.75V9.56249C12.75 9.75035 12.8246 9.93052 12.9575 10.0634C13.0903 10.1962 13.2705 10.2708 13.4583 10.2708C13.6462 10.2708 13.8264 10.1962 13.9592 10.0634C14.092 9.93052 14.1667 9.75035 14.1667 9.56249V8.85416H14.875C15.0629 8.85416 15.243 8.77953 15.3759 8.64669C15.5087 8.51385 15.5833 8.33369 15.5833 8.14582C15.5833 7.95796 15.5087 7.77779 15.3759 7.64496C15.243 7.51212 15.0629 7.43749 14.875 7.43749ZM9.42083 8.65582C9.79878 8.32867 10.1019 7.92403 10.3097 7.46938C10.5175 7.01473 10.625 6.5207 10.625 6.02082C10.625 5.08151 10.2519 4.18068 9.58767 3.51649C8.92348 2.8523 8.02264 2.47916 7.08333 2.47916C6.14402 2.47916 5.24319 2.8523 4.57899 3.51649C3.9148 4.18068 3.54166 5.08151 3.54166 6.02082C3.54166 6.5207 3.64919 7.01473 3.85696 7.46938C4.06473 7.92403 4.36788 8.32867 4.74583 8.65582C3.75426 9.10483 2.91299 9.82991 2.32261 10.7444C1.73222 11.6588 1.41771 12.724 1.41666 13.8125C1.41666 14.0004 1.49129 14.1805 1.62413 14.3134C1.75697 14.4462 1.93714 14.5208 2.125 14.5208C2.31286 14.5208 2.49303 14.4462 2.62586 14.3134C2.7587 14.1805 2.83333 14.0004 2.83333 13.8125C2.83333 12.6853 3.2811 11.6043 4.07813 10.8073C4.87516 10.0103 5.95616 9.56249 7.08333 9.56249C8.2105 9.56249 9.29151 10.0103 10.0885 10.8073C10.8856 11.6043 11.3333 12.6853 11.3333 13.8125C11.3333 14.0004 11.408 14.1805 11.5408 14.3134C11.6736 14.4462 11.8538 14.5208 12.0417 14.5208C12.2295 14.5208 12.4097 14.4462 12.5425 14.3134C12.6754 14.1805 12.75 14.0004 12.75 13.8125C12.749 12.724 12.4344 11.6588 11.8441 10.7444C11.2537 9.82991 10.4124 9.10483 9.42083 8.65582ZM7.08333 8.14582C6.66305 8.14582 6.2522 8.02119 5.90274 7.7877C5.55329 7.5542 5.28092 7.22232 5.12009 6.83403C4.95925 6.44573 4.91717 6.01847 4.99916 5.60626C5.08116 5.19405 5.28354 4.81541 5.58073 4.51822C5.87792 4.22103 6.25655 4.01865 6.66876 3.93665C7.08097 3.85466 7.50824 3.89674 7.89653 4.05758C8.28483 4.21842 8.61671 4.49078 8.8502 4.84024C9.0837 5.18969 9.20833 5.60054 9.20833 6.02082C9.20833 6.58441 8.98445 7.12491 8.58593 7.52343C8.18742 7.92194 7.64692 8.14582 7.08333 8.14582Z" fill="#F01C3C"/>
</svg>
